<svg width="20" height="18" viewBox="0 0 20 18" fill="none" xmlns="http://www.w3.org/2000/svg">
<path d="M4.09059 5.22281C7.34909 2.00133 12.6322 2.00133 15.8907 5.22281L16.2828 5.6105C16.4458 5.7716 16.4458 6.03273 16.2828 6.19382L14.9413 7.52009C14.8599 7.60064 14.7278 7.60064 14.6463 7.52009L14.1067 6.98658C11.8334 4.73918 8.14782 4.73918 5.87459 6.98658L5.29665 7.55792C5.21521 7.63847 5.08315 7.63847 5.00166 7.55792L3.66016 6.23165C3.49719 6.07056 3.49719 5.80943 3.66016 5.64833L4.09059 5.22281ZM18.6651 7.9657L19.8591 9.14605C20.022 9.30715 20.022 9.56828 19.8591 9.72938L14.4754 15.0519C14.3125 15.213 14.0483 15.213 13.8854 15.0519L10.0644 11.2744C10.0237 11.2341 9.95764 11.2341 9.91689 11.2744L6.096 15.0519C5.93308 15.213 5.6689 15.213 5.50598 15.0519L0.122194 9.72932C-0.0407313 9.56823 -0.0407313 9.3071 0.122194 9.146L1.31616 7.96559C1.47908 7.80455 1.74324 7.80455 1.90617 7.96559L5.72723 11.7432C5.76792 11.7835 5.83395 11.7835 5.8747 11.7432L9.69554 7.96559C9.85846 7.80455 10.1226 7.80455 10.2856 7.96559L14.1066 11.7432C14.1474 11.7835 14.2134 11.7835 14.2541 11.7432L18.0751 7.9657C18.238 7.80461 18.5022 7.80461 18.6651 7.9657Z" fill="white"/>
</svg>
