<svg width="15" height="15" viewBox="0 0 15 15" fill="none" xmlns="http://www.w3.org/2000/svg">
<path opacity="0.5" d="M14.9938 13.2537C14.9782 13.2914 14.9611 13.3277 14.9487 13.3668C14.9004 13.5109 14.8143 13.6414 14.6982 13.7464C14.5821 13.8515 14.4397 13.9279 14.2839 13.9685C14.1281 14.0092 13.964 14.0129 13.8063 13.9793C13.6486 13.9456 13.5024 13.8758 13.381 13.776C13.3375 13.7398 13.2955 13.7006 13.255 13.6614L7.63447 8.41884C7.59404 8.37967 7.56293 8.33323 7.51627 8.27374L7.37164 8.40143C5.4836 10.1668 3.59712 11.9298 1.71219 13.6904C1.5812 13.8304 1.40716 13.9293 1.21375 13.9737C1.02034 14.0181 0.816963 14.0059 0.63131 13.9385C0.485254 13.8888 0.354325 13.8067 0.24976 13.6993C0.145195 13.5919 0.0701146 13.4624 0.0309631 13.322C-0.00818834 13.1816 -0.0102416 13.0345 0.0249782 12.8932C0.060198 12.7518 0.131639 12.6206 0.233172 12.5107C0.276718 12.4629 0.326486 12.4179 0.374698 12.3729L5.99527 7.13033C6.0357 7.09261 6.08703 7.06359 6.16479 7.007C6.10208 6.96717 6.04185 6.92406 5.98438 6.87786L0.340483 1.60628C-0.126084 1.17097 -0.102756 0.532527 0.410467 0.195889C0.570628 0.114017 0.740184 0.0492753 0.915914 0.00290046H1.03256C1.39026 0.0435291 1.63598 0.246673 1.8786 0.474484C3.70546 2.19056 5.53803 3.90471 7.3763 5.61692C7.41363 5.65174 7.45251 5.68511 7.53183 5.74896C7.56126 5.69746 7.59617 5.64884 7.63603 5.60386C9.466 3.89261 11.297 2.18186 13.1291 0.471583C13.3717 0.243772 13.6174 0.0362756 13.9751 0H14.0918C14.2729 0.0566144 14.4491 0.125978 14.619 0.207495C14.8367 0.329382 14.93 0.547035 15 0.764688V1.06505C14.9153 1.32591 14.7536 1.55924 14.5334 1.73832C12.6806 3.45344 10.8336 5.17193 8.99218 6.89382C8.94026 6.93082 8.88451 6.9629 8.82577 6.98958C8.91442 7.06068 8.95796 7.09116 8.99685 7.12598C10.8413 8.8469 12.6869 10.5678 14.5334 12.2887C14.7548 12.4633 14.9169 12.6942 15 12.9533L14.9938 13.2537Z" fill="white"/>
</svg>
