<svg width="182" height="30" viewBox="0 0 182 30" fill="none" xmlns="http://www.w3.org/2000/svg">
<path fill-rule="evenodd" clip-rule="evenodd" d="M127.517 28.1482C127.517 28.1482 127.945 27.9352 128.372 27.5624C129.97 26.4534 129.178 24.6677 128.538 23.2232C128.471 23.0724 128.406 22.9253 128.346 22.7831C127.861 21.6104 127.353 20.4456 126.845 19.2805C126.217 17.8401 125.588 16.3991 125.004 14.9419C124.51 13.7038 122.398 8.8712 122.331 9.00432C122.267 9.13732 122.206 9.25776 122.148 9.3711L122.148 9.37155L122.148 9.3718C122.073 9.51912 122.004 9.65445 121.943 9.78978C121.678 10.3926 121.415 10.9954 121.153 11.5978L121.151 11.6025L121.151 11.6033C120.567 12.9414 119.985 14.2776 119.377 15.6075C118.898 16.65 118.389 17.6815 117.88 18.7128L117.88 18.7131C117.142 20.2101 116.404 21.7066 115.755 23.2358C115.704 23.3593 115.647 23.4858 115.589 23.6147C115.348 24.1522 115.09 24.7301 115.1 25.2993C115.114 26.4708 115.755 27.3627 116.811 27.8686C117.04 28.0075 117.277 28.0725 117.404 28.1076C117.448 28.1196 117.479 28.1281 117.493 28.1349H117.466H115.247L115.247 28.1349L115.247 28.1349C114.044 28.1216 112.841 28.1083 111.639 28.1216C111.492 28.1216 111.358 28.1216 111.211 28.1349H106.934H105.143L105.106 28.1349L104.987 28.1354C104.527 28.1378 104.105 28.14 103.673 27.9485C103.258 27.7488 102.978 27.4559 102.684 27.1231C102.517 26.9368 102.35 26.7538 102.183 26.5708C102.016 26.3877 101.848 26.2046 101.681 26.0181C101.251 25.5373 100.815 25.0623 100.381 24.5892L100.381 24.5891L100.381 24.589L100.379 24.5866C100.153 24.3401 99.9273 24.0941 99.7032 23.8482C99.5067 23.6306 99.3116 23.4117 99.116 23.1922L99.1156 23.1917C98.7128 22.7398 98.3083 22.2859 97.8855 21.8379C96.6693 20.5466 95.4396 19.2685 94.1966 17.9905C94.0362 17.8041 93.8224 17.6843 93.5818 17.6444C93.2878 17.6311 92.9937 17.6311 92.6997 17.6311H91.7106C91.7106 17.6311 91.6305 19.1088 91.6705 20.8927C91.6572 21.0791 91.6572 21.2655 91.6572 21.4652V22.0775V24.7667V24.78C91.6572 26.3776 93.1675 27.5891 94.5174 28.1349H84.7606C85.0813 27.9884 85.3887 27.8021 85.6694 27.6024C86.2976 27.1897 86.8857 26.6172 87.1664 25.9116C87.3985 25.3281 87.4112 24.699 87.4238 24.0771V24.0769V24.0766C87.4264 23.9467 87.429 23.8172 87.4337 23.6884C87.447 23.2491 87.447 22.8231 87.447 22.3971V19.2818C87.447 15.1282 87.447 10.9613 87.4337 6.8077C87.4337 5.71605 87.2065 4.61108 86.5248 3.71912C86.5048 3.6925 86.4814 3.66587 86.458 3.63925C86.4346 3.61262 86.4112 3.586 86.3912 3.55937C85.7496 2.78722 84.9878 2.37453 84.5601 2.18815H87.5673C88.566 2.18815 89.569 2.17082 90.5738 2.15347C91.3307 2.14039 92.0887 2.1273 92.8467 2.12158C93.4482 2.10827 94.063 2.10827 94.6644 2.10827C97.7519 2.10827 101.173 2.3479 103.566 4.54452C105.491 6.31513 105.998 9.19071 105.13 11.627C104.127 14.4227 101.427 16.353 98.7142 17.3249C101.2 20.3069 103.9 23.1293 106.787 25.7519C107.509 26.4042 108.404 27.0965 109.353 26.8835C110.209 26.6838 110.73 25.8584 111.144 25.0862C113.897 20.0274 116.517 14.862 118.99 9.63003C118.99 9.63003 122.786 1.85533 122.799 1.85533L123.24 0.98999L123.614 1.80207L124.336 3.30643L124.363 3.35968C124.472 3.56842 124.57 3.7824 124.668 3.99505L124.668 3.99525L124.668 3.99553L124.668 3.99614C124.726 4.12217 124.784 4.24773 124.844 4.37145C126.608 8.13899 128.332 11.9198 130.056 15.7007C130.183 15.9753 130.31 16.2502 130.437 16.5254L130.437 16.5258L130.437 16.5261C131.142 18.0517 131.85 19.5853 132.529 21.119C132.68 21.4595 132.827 21.8021 132.974 22.1448L132.974 22.1462L132.975 22.148C133.557 23.5061 134.14 24.8657 134.962 26.098C135.055 26.2445 135.149 26.3776 135.256 26.5107C135.723 27.1231 136.539 27.7089 137.207 28.1482H127.517ZM93.114 15.1415C94.3971 15.2081 95.7871 15.1282 97.0435 14.7688C98.8879 14.2363 100.425 13.1313 100.919 11.0545C101.467 8.71144 100.077 6.0755 97.8321 5.19685C96.7361 4.77084 95.5332 4.7309 94.357 4.75753L94.2468 4.76083C93.4107 4.78547 92.3997 4.81527 91.9646 5.51636C91.7561 5.84417 91.7548 6.31549 91.7536 6.73155C91.7534 6.82238 91.7531 6.91059 91.7507 6.99408C91.6705 9.23064 91.6572 11.4805 91.724 13.7171C91.7507 14.4759 92.3522 15.1016 93.114 15.1415ZM34.8361 13.4512C34.5899 13.1558 34.3109 12.8767 34.0072 12.6223C33.3261 12.0479 32.5054 11.5719 31.6109 11.1533L31.0692 10.9071C30.8559 10.8087 30.6344 10.7184 30.4129 10.6282L30.4127 10.6281C30.0886 10.4927 29.7542 10.3696 29.4197 10.2465L29.4197 10.2465L29.4197 10.2465C29.0852 10.1234 28.7508 10.0003 28.4267 9.86488C28.4185 9.87309 28.4185 9.87309 28.4185 9.87411C28.4185 9.87514 28.4185 9.87719 28.4103 9.8895L28.3692 9.93054L28.7385 10.1029L28.7878 10.1275C29.4607 10.4229 30.1009 10.7594 30.6671 11.1369C30.8312 11.2518 30.9872 11.3667 31.1431 11.4816C31.2908 11.6047 31.4385 11.7278 31.5781 11.8591C32.3987 12.6469 32.9322 13.5086 32.3823 14.5837C31.9309 15.47 30.9872 16.0445 29.8793 16.4877C29.1735 16.7667 28.4595 16.9965 27.7291 17.177C27.606 17.2099 27.4747 17.2427 27.3516 17.2673C26.9331 17.3658 26.5063 17.4479 26.0796 17.5135C25.0291 17.6859 23.9623 17.7761 22.8954 17.8254L22.5785 17.8377L22.2635 17.85H22.165C21.9188 17.8582 21.6727 17.8582 21.4266 17.8582H21.4264H20.696H20.6958C20.4907 17.8582 20.2856 17.8582 20.0887 17.85C18.5869 17.8172 17.1097 17.7187 15.6571 17.5299C14.9021 17.4314 14.1635 17.3166 13.4249 17.177C13.4693 17.0918 13.5205 16.9966 13.5685 16.9072L13.5685 16.9071C13.6269 16.7985 13.6806 16.6984 13.7121 16.6354C13.7203 16.619 13.7306 16.6005 13.7408 16.582C13.7511 16.5636 13.7613 16.5451 13.7695 16.5287C13.79 16.4877 13.8106 16.4487 13.8311 16.4098L13.8311 16.4097C13.8516 16.3707 13.8721 16.3318 13.8926 16.2907C13.9148 16.2463 13.9361 16.2029 13.9571 16.16L13.9571 16.1599C13.9981 16.0761 14.038 15.9947 14.0814 15.9132C14.0732 15.9132 14.0732 15.9132 14.065 15.905C14.6608 14.7633 15.2418 13.6449 15.8242 12.524L15.8243 12.5239L15.8248 12.5229C16.3892 11.4364 16.9549 10.3476 17.5364 9.23297C17.5364 9.24117 17.5446 9.24938 17.5528 9.25759L18.5891 11.2504C19.4071 12.8232 20.2095 14.3662 21.0078 15.905C21.0404 15.9702 21.0743 16.0353 21.1084 16.101L21.1085 16.1011C21.1603 16.2008 21.2128 16.3017 21.2623 16.4056C21.291 16.4589 21.3176 16.5102 21.3443 16.5614L21.3443 16.5615C21.371 16.6128 21.3977 16.6641 21.4264 16.7175C21.4428 16.7585 21.4674 16.7995 21.492 16.8324C21.5053 16.8655 21.5829 16.9791 21.6858 17.1297L21.7629 17.2427C21.8121 17.3083 21.8613 17.3822 21.9106 17.4643L21.9108 17.4642L21.9109 17.4642L21.9109 17.4641L21.911 17.4641L21.9111 17.4641L21.9112 17.4641C22.0915 17.3985 22.2719 17.3329 22.4604 17.2591C22.879 17.1032 23.2893 16.9308 23.6832 16.7421C24.2249 16.4877 24.7419 16.2004 25.2343 15.8722L25.2097 15.8311C24.319 14.119 23.4284 12.4059 22.537 10.6914C20.8905 7.52437 19.2415 4.35264 17.5857 1.174V1.16579C17.5816 1.15759 17.5775 1.15144 17.5734 1.1453L17.5733 1.14527L17.5733 1.14525C17.5692 1.1391 17.5651 1.13295 17.561 1.12476C17.5569 1.13295 17.5528 1.1391 17.5487 1.14525L17.5487 1.14527L17.5487 1.1453C17.5446 1.15144 17.5405 1.15759 17.5364 1.16579V1.174C15.017 6.02415 12.5057 10.8497 9.99447 15.6752L9.94523 15.7737L9.89599 15.8722C9.83033 16.0035 9.76468 16.1266 9.69082 16.2579C9.62927 16.2374 9.56772 16.2189 9.50617 16.2004C9.44462 16.182 9.38307 16.1635 9.32152 16.143C8.22182 15.7901 7.18778 15.3716 6.26042 14.8628L5.8665 14.633C5.251 14.2555 4.69295 13.8205 4.21696 13.3117C4.18282 13.2775 4.15262 13.2395 4.12363 13.2029C4.11081 13.1867 4.09823 13.1709 4.08565 13.1558C4.0036 13.0573 3.93795 12.9588 3.87231 12.8604L3.8723 12.8603L3.87228 12.8603L3.7738 12.688L3.6507 12.3925C3.32243 11.4242 3.82304 10.4229 5.09507 9.62689C6.42456 8.79801 7.98383 8.41229 9.60055 8.10044C7.28626 8.36305 5.02121 8.7898 2.96954 9.74178C1.50055 10.4229 0.392642 11.3011 0.269542 12.5813C0.195682 13.3773 0.523949 14.0503 1.06559 14.6576L1.06561 14.6576C1.13126 14.7315 1.19691 14.8053 1.27076 14.8792C1.41848 15.0269 1.57441 15.1746 1.73854 15.3059C1.79599 15.3552 1.85343 15.4044 1.91909 15.4536C1.97653 15.5029 2.04219 15.5521 2.09963 15.5932C2.89568 16.2004 3.81483 16.7093 4.80784 17.1524C4.87759 17.1852 4.9494 17.216 5.0212 17.2468C5.09301 17.2776 5.16483 17.3083 5.23459 17.3412L5.40693 17.415C5.62851 17.5053 5.8583 17.5956 6.08808 17.6776C6.1127 17.6859 6.13938 17.6961 6.16605 17.7064C6.19272 17.7166 6.21939 17.7269 6.24401 17.7351C6.43276 17.809 6.62973 17.8746 6.82669 17.9403C6.94979 17.9813 7.07289 18.0223 7.18778 18.0634C7.63094 18.2111 8.08231 18.3506 8.53368 18.4819C10.6264 19.081 12.834 19.5077 15.1154 19.7786C17.3148 20.0412 19.5306 20.1971 21.7711 20.1807C20.737 20.4515 19.7112 20.6813 18.6689 20.8783C18.9316 20.9767 19.186 21.0834 19.4404 21.1901C19.7276 21.3132 20.0148 21.4363 20.2939 21.5594C21.4264 22.06 22.5343 22.6099 23.6176 23.2007C23.6428 23.2108 23.6649 23.224 23.6859 23.2365C23.699 23.2443 23.7116 23.2519 23.7243 23.2582C24.389 23.6193 25.0455 23.9968 25.6939 24.3907C26.8872 25.1143 28.0556 25.8805 29.2249 26.6472L29.2249 26.6472L29.225 26.6472L29.225 26.6472L29.225 26.6472L29.2251 26.6473C29.8329 27.0459 30.441 27.4446 31.0528 27.8375C31.1051 27.8713 31.1574 27.9063 31.2101 27.9416L31.2101 27.9416C31.2981 28.0005 31.3872 28.0601 31.4796 28.1166L31.5616 28.0345L27.4993 20.2299C27.4911 20.2176 27.485 20.2053 27.4788 20.193L27.4788 20.193C27.4727 20.1807 27.4665 20.1684 27.4583 20.1561C27.4255 20.0904 27.3926 20.0268 27.3598 19.9632C27.327 19.8996 27.2942 19.836 27.2613 19.7704C29.2556 19.4913 31.1759 19.0482 32.9486 18.2275C35.5419 17.0293 36.2723 15.1992 34.8361 13.4512ZM8.39417 22.7166C7.72943 22.6756 7.06469 22.61 6.41636 22.5033C6.08792 23.1349 5.75948 23.7655 5.43137 24.3956L5.43093 24.3964L5.43049 24.3972C4.79967 25.6085 4.17007 26.8174 3.54402 28.0264C3.55632 28.0387 3.56862 28.053 3.58092 28.0674L3.58095 28.0674L3.58098 28.0674C3.59328 28.0818 3.60558 28.0961 3.61788 28.1084C3.67012 28.0746 3.72236 28.0397 3.77503 28.0044L3.77513 28.0044L3.77525 28.0043C3.86317 27.9455 3.95229 27.8858 4.04462 27.8294C4.53671 27.5097 5.02692 27.1868 5.51715 26.8639L5.51719 26.8639L5.51722 26.8639L5.51724 26.8638L5.51726 26.8638L5.51728 26.8638C6.80115 26.0182 8.08518 25.1725 9.40359 24.3826C10.1094 23.9559 10.8151 23.5455 11.5373 23.1598C11.5626 23.1497 11.5847 23.1365 11.6056 23.124C11.6187 23.1162 11.6314 23.1087 11.644 23.1024C11.7155 23.0646 11.7875 23.0264 11.8597 22.9881L11.8597 22.9881L11.8597 22.988L11.8599 22.988L11.8601 22.9879L11.8603 22.9878C12.0863 22.8678 12.3148 22.7465 12.5385 22.6346C11.168 22.7659 9.78931 22.7987 8.39417 22.7166ZM47.6971 28.7202C48.3387 28.6004 48.9936 28.414 49.6351 28.1478C53.0033 26.7765 55.8769 23.5548 54.8076 19.7607C53.8943 16.5284 51.0318 15.1322 48.2223 13.7619C47.1668 13.2471 46.1188 12.7359 45.1844 12.1324C44.3691 11.6132 43.5939 10.9742 43.1529 10.1222C42.391 8.65776 42.7786 6.7274 43.9815 5.5958C45.2913 4.37102 47.2694 4.13139 49.0471 4.37102C50.544 4.57072 52.188 5.26298 52.629 6.70077C52.6223 6.02847 52.619 5.3595 52.6157 4.69053C52.6123 4.02156 52.609 3.35259 52.6023 2.68029C52.6023 2.52054 52.6023 2.36078 52.5221 2.24097C52.4018 2.04127 52.1345 2.00134 51.9073 1.97471C49.6886 1.70845 47.4031 1.64189 45.2245 2.18772C43.0593 2.73354 40.9876 3.95832 39.7981 5.84875C38.4081 8.07199 38.6219 10.8144 40.1189 12.9179C41.4971 14.9021 43.8383 15.9856 45.9866 16.9798L45.9871 16.98L45.9876 16.9802L45.9907 16.9817C46.1328 17.0474 46.274 17.1128 46.4141 17.178C47.8843 17.8703 49.4748 18.7489 50.3302 20.1867C51.0118 21.3316 51.0653 22.9558 50.3703 24.114C49.0738 26.2573 45.6255 26.67 43.3801 26.2707C43.2732 26.244 43.1529 26.2174 43.0327 26.1908L43.0326 26.1908C41.4822 25.7914 40.1322 25.0592 39.357 23.6214V26.9629C39.357 27.2691 39.3704 27.5886 39.5442 27.8416C39.7446 28.1345 40.1322 28.241 40.4798 28.3208C40.6466 28.367 40.807 28.4003 40.9699 28.4342L40.97 28.4342L40.9701 28.4343L40.9716 28.4346C41.043 28.4494 41.115 28.4644 41.1881 28.4806C43.3266 28.9199 45.5453 29.1063 47.6971 28.7202ZM83.3699 1.19089L78.7855 5.95689C77.6131 5.28413 75.6995 5.07129 75.327 5.02986L75.2838 5.02499H75.257C74.8694 4.95843 74.4818 4.91849 74.0942 4.90517L73.983 4.89945C72.6759 4.83174 70.8066 4.73492 70.3519 6.22315C70.245 6.55597 70.2049 6.9021 70.1781 7.26155L70.2049 21.5063C70.2115 21.646 70.2149 21.7891 70.2182 21.9322C70.2216 22.0753 70.2249 22.2185 70.2316 22.3583C70.2407 22.5293 70.2481 22.7037 70.2556 22.8804C70.3028 23.9968 70.3539 25.2021 70.8731 26.1791C71.2073 26.8048 72.3166 28.1627 73.1319 28.1627H63.3617C63.9632 28.1627 64.9121 27.1776 65.2463 26.7516C65.968 25.833 66.0749 24.6614 66.0749 23.5432C66.0749 23.2037 66.0783 22.8642 66.0816 22.5247C66.0849 22.1853 66.0883 21.8458 66.0883 21.5063C66.1016 19.3097 66.1016 17.1264 66.1016 14.9298C66.1016 14.173 66.111 13.4163 66.1204 12.6595L66.1204 12.6577C66.1427 10.859 66.165 9.06025 66.0616 7.26155C66.0549 7.16836 66.0482 7.0785 66.0415 6.98864C66.0348 6.89877 66.0281 6.80891 66.0215 6.71572C65.9814 6.10333 65.7541 5.43769 65.2195 5.13149C64.9142 4.9596 64.5561 4.93217 64.2108 4.90571L64.2037 4.90517C63.6023 4.87855 63.0008 4.86524 62.3994 4.9318C62.3593 4.9318 62.3326 4.9318 62.2925 4.94511L62.2923 4.94513C62.1587 4.95844 62.0251 4.97174 61.9049 4.98505C61.7712 4.99836 61.6376 5.02499 61.5173 5.05162C61.4705 5.05162 61.4204 5.05494 61.3702 5.05827C61.3201 5.0616 61.27 5.06493 61.2232 5.06493C59.0981 5.3445 57.5343 7.06186 57.0933 7.621V2.18935C57.0933 2.18935 58.2962 2.17604 58.4699 2.18935H58.5501C60.4881 2.18935 62.4261 2.20633 64.3641 2.22331C67.8525 2.25388 71.3409 2.28445 74.8293 2.21598C75.2838 2.20752 75.7491 2.20847 76.22 2.20943C77.231 2.21149 78.268 2.21361 79.2801 2.12279H79.3068H79.3335H79.4004C79.6944 2.09616 80.0018 2.05623 80.2959 2.01629C80.3092 2.01629 80.3226 2.01296 80.336 2.00963C80.3493 2.0063 80.3627 2.00297 80.376 2.00297C81.2582 1.85653 82.5145 1.60359 83.3699 1.19089ZM154.902 26.0046C156.132 25.7517 158.19 25.126 159.928 23.6483C159.928 23.7281 158.738 27.3625 157.068 28.148C156.693 28.3211 156.279 28.4542 155.771 28.5474C155.698 28.5607 155.621 28.574 155.544 28.5873C155.467 28.6006 155.39 28.6139 155.317 28.6273C152.43 29.1331 149.035 29.213 146.362 28.4009C142.472 27.2294 139.505 24.5136 137.968 20.5464C137.26 18.9222 136.872 17.1516 136.872 15.2878C136.872 8.7778 141.724 3.41272 147.966 2.02819C151.521 1.24273 155.424 1.60217 158.912 2.5607C159.473 2.70714 160.008 3.02665 159.888 3.67898C159.661 4.90376 159.3 6.88738 159.166 7.64621C158.859 5.91554 155.771 4.9437 154.942 4.71738H154.929C154.795 4.67293 154.652 4.63776 154.515 4.60412L154.435 4.58425C149.663 3.46597 144.557 5.92885 142.633 10.4153C141.764 12.2924 141.43 14.3559 141.644 16.4061C141.831 18.5894 142.713 20.6662 144.17 22.317C146.375 24.8065 149.329 26.0579 152.657 26.191C153.058 26.2043 153.472 26.191 153.86 26.1644H153.9H153.953C154.274 26.1378 154.595 26.0845 154.902 26.0179C154.889 26.0046 154.902 26.0046 154.902 26.0046ZM180.952 25.966C181.193 25.2205 181.473 24.3951 181.741 23.6096C181.579 23.751 181.363 23.9153 181.239 24.0096C181.199 24.0397 181.169 24.0627 181.153 24.0756L181.139 24.0889C181.126 24.1155 181.113 24.1288 181.086 24.1422C178.961 25.8595 176.047 26.179 173.401 26.006C171.917 25.9128 169.485 25.4734 169.485 23.5564V15.9681H170.34H170.728H171.222H171.235L172.919 15.9814H175.339C175.393 15.9724 175.441 15.9755 175.487 15.9785C175.509 15.98 175.531 15.9814 175.552 15.9814C175.98 15.9548 177.036 16.0613 178.012 17.4325V11.6148C177.036 12.986 175.994 13.0925 175.552 13.0659H175.339C174.804 13.057 174.262 13.06 173.723 13.0629C173.455 13.0644 173.186 13.0659 172.919 13.0659L171.235 13.0792H170.981H170.26H170.233H169.485V11.1621C169.471 9.87078 169.471 8.56613 169.498 7.27478C169.525 5.79705 170.046 5.23791 171.516 5.10478C172.625 4.99828 174.296 4.95834 175.419 4.98497C176.542 4.99828 177.651 5.26454 178.533 5.97012C178.546 5.98343 178.56 5.99675 178.586 6.01006C178.84 6.20975 180.003 7.18159 180.391 8.44631V3.44068C180.391 2.85491 179.91 2.37565 179.322 2.37565H173.481C171.113 2.40061 168.733 2.41387 166.485 2.4264L166.036 2.4289H162.08C162.109 2.43954 162.138 2.45018 162.168 2.46107C162.251 2.49106 162.339 2.52297 162.428 2.56203C163.042 2.81498 163.791 3.29424 164.325 4.15957C165.045 5.34372 165.016 6.72238 164.988 8.07422C164.979 8.45497 164.972 8.83359 164.98 9.20514C164.998 9.87966 164.992 10.5542 164.986 11.2287C164.983 11.566 164.98 11.9032 164.98 12.2405C164.98 13.8913 164.967 15.5421 164.954 17.1928C164.94 18.7646 164.914 20.3235 164.888 21.8949L164.887 21.9722C164.882 22.2547 164.886 22.5458 164.891 22.841C164.91 24.1875 164.931 25.6197 164.098 26.7115C163.791 27.1109 163.43 27.4437 163.002 27.6967C162.983 27.7082 162.956 27.7253 162.922 27.7462C162.724 27.8699 162.313 28.1265 162.107 28.1493H168.348C170.166 28.1094 171.997 28.1094 173.815 28.1493H177.905C179.295 28.1493 180.511 27.2707 180.952 25.966Z" fill="white"/>
</svg>
