<svg width="36" height="28" viewBox="0 0 36 28" fill="none" xmlns="http://www.w3.org/2000/svg">
<path fill-rule="evenodd" clip-rule="evenodd" d="M34.0967 12.0017C34.4003 12.2561 34.6793 12.5352 34.9255 12.8306C36.3617 14.5786 35.6313 16.4087 33.038 17.6069C31.2653 18.4276 29.345 18.8707 27.3508 19.1497C27.3836 19.2154 27.4164 19.279 27.4492 19.3426C27.4821 19.4062 27.5149 19.4698 27.5477 19.5355C27.5559 19.5478 27.5621 19.5601 27.5682 19.5724C27.5744 19.5847 27.5805 19.597 27.5888 19.6093L31.6511 27.4139L31.569 27.496C31.4766 27.4395 31.3874 27.3798 31.2995 27.321C31.2468 27.2857 31.1945 27.2507 31.1422 27.2169C30.5304 26.824 29.9223 26.4253 29.3145 26.0267C28.1452 25.2599 26.9767 24.4937 25.7833 23.7701C25.135 23.3762 24.4784 22.9987 23.8137 22.6376C23.801 22.6313 23.7884 22.6237 23.7753 22.6159C23.7543 22.6034 23.7322 22.5902 23.707 22.5801C22.6237 21.9893 21.5158 21.4394 20.3833 20.9388C20.1042 20.8157 19.817 20.6926 19.5298 20.5695C19.2754 20.4628 19.021 20.3561 18.7584 20.2577C19.8006 20.0607 20.8264 19.8309 21.8605 19.5601C19.6201 19.5765 17.4042 19.4206 15.2049 19.158C12.9234 18.8871 10.7158 18.4604 8.62309 17.8613C8.17173 17.73 7.72036 17.5905 7.2772 17.4428C7.1623 17.4017 7.0392 17.3607 6.9161 17.3197C6.71914 17.254 6.52218 17.1883 6.33343 17.1145C6.30881 17.1063 6.28214 17.096 6.25546 17.0858C6.22879 17.0755 6.20212 17.0652 6.1775 17.057C5.94771 16.975 5.71793 16.8847 5.49635 16.7944L5.32401 16.7206C5.25424 16.6877 5.18243 16.657 5.11062 16.6262C5.03881 16.5954 4.96701 16.5646 4.89726 16.5318C3.90425 16.0887 2.9851 15.5798 2.18905 14.9725C2.1316 14.9315 2.06595 14.8823 2.0085 14.833C1.94285 14.7838 1.8854 14.7346 1.82796 14.6853C1.66382 14.554 1.50789 14.4063 1.36017 14.2586C1.28632 14.1847 1.22067 14.1109 1.15503 14.037L1.15501 14.037C0.613366 13.4297 0.285098 12.7567 0.358959 11.9607C0.482059 10.6804 1.58996 9.80233 3.05896 9.12117C5.11063 8.1692 7.37568 7.74245 9.68996 7.47983C8.07325 7.79169 6.51397 8.17741 5.18449 9.00628C3.91245 9.80233 3.41185 10.8035 3.74011 11.7719L3.86321 12.0674L3.96169 12.2397L3.96171 12.2397C4.02736 12.3382 4.09301 12.4367 4.17507 12.5352C4.18765 12.5503 4.20023 12.5661 4.21305 12.5823C4.24204 12.6189 4.27223 12.6569 4.30638 12.6911C4.78236 13.1999 5.34042 13.6349 5.95592 14.0124L6.34984 14.2421C7.2772 14.751 8.31124 15.1695 9.41094 15.5224C9.47249 15.5429 9.53404 15.5614 9.59559 15.5798C9.65714 15.5983 9.71869 15.6168 9.78024 15.6373C9.8541 15.506 9.91975 15.3829 9.9854 15.2516L10.0346 15.1531L10.0839 15.0546C12.5951 10.2291 15.1064 5.40354 17.6258 0.553391V0.545184C17.6299 0.536977 17.634 0.530822 17.6381 0.524667C17.6422 0.518512 17.6463 0.512357 17.6504 0.50415C17.6546 0.512357 17.6587 0.518512 17.6628 0.524667C17.6669 0.530822 17.671 0.536977 17.6751 0.545184V0.553391C19.3309 3.73203 20.9799 6.90377 22.6265 10.0708C23.5178 11.7853 24.4084 13.4984 25.2991 15.2105L25.3237 15.2516C24.8313 15.5798 24.3143 15.8671 23.7726 16.1215C23.3787 16.3102 22.9684 16.4826 22.5498 16.6385C22.3612 16.7123 22.1807 16.778 22.0002 16.8436L22 16.8437C21.9508 16.7616 21.9015 16.6877 21.8523 16.6221C21.8255 16.5827 21.7996 16.5449 21.7752 16.5091C21.6723 16.3585 21.5947 16.2449 21.5815 16.2118C21.5568 16.1789 21.5322 16.1379 21.5158 16.0969C21.4871 16.0435 21.4604 15.9922 21.4337 15.9409C21.4071 15.8896 21.3804 15.8383 21.3517 15.785C21.3022 15.6811 21.2497 15.5801 21.1978 15.4804C21.1637 15.4147 21.1298 15.3495 21.0973 15.2844C20.2989 13.7456 19.4965 12.2026 18.6785 10.6298C18.3361 9.97138 17.9909 9.30775 17.6422 8.63698C17.634 8.62877 17.6258 8.62057 17.6258 8.61236C17.0441 9.72734 16.4783 10.8165 15.9137 11.9032C15.3313 13.0242 14.7503 14.1427 14.1544 15.2844C14.1626 15.2926 14.1626 15.2926 14.1708 15.2926C14.1274 15.3741 14.0875 15.4556 14.0465 15.5394C14.0255 15.5822 14.0043 15.6257 13.9821 15.6701C13.9615 15.7111 13.941 15.7501 13.9205 15.7891C13.9 15.8281 13.8795 15.8671 13.859 15.9081C13.8508 15.9245 13.8405 15.943 13.8302 15.9614C13.82 15.9799 13.8097 15.9984 13.8015 16.0148C13.77 16.0778 13.7163 16.1778 13.6579 16.2865C13.6099 16.3759 13.5587 16.4712 13.5143 16.5564C14.2529 16.6959 14.9915 16.8108 15.7465 16.9093C17.1991 17.0981 18.6763 17.1966 20.1781 17.2294C20.375 17.2376 20.5801 17.2376 20.7853 17.2376H20.7854H21.5158H21.516C21.7621 17.2376 22.0083 17.2376 22.2544 17.2294H22.3529C22.4593 17.2253 22.5636 17.2212 22.6679 17.2171C22.7729 17.213 22.8778 17.2089 22.9848 17.2048C24.0517 17.1555 25.1185 17.0652 26.169 16.8929C26.5957 16.8273 27.0225 16.7452 27.441 16.6467C27.5641 16.6221 27.6954 16.5893 27.8185 16.5564C28.5489 16.3759 29.2629 16.1461 29.9687 15.8671C31.0766 15.4239 32.0204 14.8494 32.4717 13.9631C33.0216 12.888 32.4881 12.0263 31.6675 11.2385C31.528 11.1072 31.3802 10.9841 31.2325 10.861C31.0766 10.7461 30.9207 10.6312 30.7565 10.5163C30.1903 10.1388 29.5501 9.80233 28.8772 9.50689L28.828 9.48227L28.4587 9.30993L28.4997 9.2689C28.5079 9.25659 28.5079 9.25453 28.5079 9.25351C28.5079 9.25248 28.5079 9.25248 28.5161 9.24427C28.8403 9.37968 29.1747 9.50278 29.5091 9.62589C29.8435 9.74899 30.178 9.87209 30.5021 10.0075L30.5023 10.0076C30.7238 10.0978 30.9453 10.1881 31.1587 10.2865L31.7003 10.5327C32.5948 10.9513 33.4155 11.4273 34.0967 12.0017ZM6.50577 21.8827C7.1541 21.9894 7.81884 22.055 8.48359 22.096C9.87872 22.1781 11.2574 22.1453 12.628 22.014C12.404 22.1259 12.1754 22.2473 11.9492 22.3674C11.8769 22.4058 11.8049 22.444 11.7334 22.4818C11.7208 22.4881 11.7081 22.4956 11.695 22.5034C11.6741 22.5159 11.652 22.5291 11.6267 22.5392C10.9046 22.9249 10.1988 23.3352 9.49301 23.762C8.17455 24.5519 6.89047 25.3976 5.60657 26.2433C5.11634 26.5662 4.62613 26.8891 4.13404 27.2088C4.04167 27.2653 3.95251 27.3249 3.86455 27.3838C3.81184 27.419 3.75957 27.454 3.70729 27.4878C3.69498 27.4755 3.68267 27.4612 3.67036 27.4468C3.65805 27.4324 3.64574 27.4181 3.63343 27.4058C4.25949 26.1968 4.88909 24.9879 5.5199 23.7766C5.84831 23.1461 6.17704 22.5148 6.50577 21.8827Z" fill="white"/>
</svg>
